<svg fill="none" height="24px" width="24px" xmlns="http://www.w3.org/2000/svg" transform="rotate(0) scale(1, 1)"><g stroke="#8f9bb3" stroke-miterlimit="10" stroke-width="1.5"><path d="m14 17h6m-3 3v-6" stroke-linecap="round"/><path d="m8.4 4h-2.8a1.6 1.6 0 0 0 -1.6 1.6v2.8a1.6 1.6 0 0 0 1.6 1.6h2.8a1.6 1.6 0 0 0 1.6-1.6v-2.8a1.6 1.6 0 0 0 -1.6-1.6zm0 10h-2.8a1.6 1.6 0 0 0 -1.6 1.6v2.8a1.6 1.6 0 0 0 1.6 1.6h2.8a1.6 1.6 0 0 0 1.6-1.6v-2.8a1.6 1.6 0 0 0 -1.6-1.6zm10-10h-2.8a1.6 1.6 0 0 0 -1.6 1.6v2.8a1.6 1.6 0 0 0 1.6 1.6h2.8a1.6 1.6 0 0 0 1.6-1.6v-2.8a1.6 1.6 0 0 0 -1.6-1.6z"/></g></svg>