<svg width="25" height="24" viewBox="0 0 25 24" fill="none" xmlns="http://www.w3.org/2000/svg">
<path fill-rule="evenodd" clip-rule="evenodd" d="M11.279 1.25H13.389C14.756 1.25 15.859 1.25 16.726 1.367C17.626 1.487 18.384 1.747 18.986 2.348C19.284 2.647 19.498 2.984 19.653 3.358C20.585 3.474 21.368 3.73 21.986 4.348C22.588 4.95 22.846 5.708 22.968 6.608C23.084 7.475 23.084 8.578 23.084 9.945V14.055C23.084 15.422 23.084 16.525 22.968 17.392C22.846 18.292 22.588 19.05 21.986 19.652C21.368 20.27 20.586 20.526 19.653 20.643C19.498 21.016 19.284 21.353 18.986 21.652C18.384 22.254 17.626 22.512 16.726 22.634C15.859 22.75 14.756 22.75 13.389 22.75H11.279C9.91198 22.75 8.80898 22.75 7.94198 22.634C7.04198 22.512 6.28398 22.254 5.68198 21.652C5.39556 21.3627 5.16891 21.0199 5.01498 20.643C4.08298 20.526 3.29998 20.27 2.68198 19.652C2.07998 19.05 1.82198 18.292 1.70098 17.392C1.58398 16.525 1.58398 15.422 1.58398 14.055V9.945C1.58398 8.578 1.58398 7.475 1.70098 6.608C1.82098 5.708 2.08098 4.95 2.68198 4.348C3.29998 3.73 4.08198 3.474 5.01498 3.358C5.1688 2.98078 5.39545 2.63757 5.68198 2.348C6.28398 1.746 7.04198 1.488 7.94198 1.367C8.80898 1.25 9.91198 1.25 11.279 1.25ZM4.66198 4.94C4.22498 5.046 3.95198 5.2 3.74298 5.41C3.46598 5.686 3.28598 6.074 3.18698 6.808C3.08598 7.564 3.08398 8.565 3.08398 10V14C3.08398 15.435 3.08598 16.437 3.18698 17.192C3.28598 17.926 3.46698 18.314 3.74298 18.591C3.95198 18.8 4.22498 18.954 4.66298 19.06C4.58398 18.248 4.58398 17.254 4.58398 16.055V7.945C4.58398 6.747 4.58398 5.752 4.66198 4.94ZM20.006 19.06C20.443 18.954 20.716 18.8 20.925 18.591C21.202 18.314 21.382 17.926 21.481 17.191C21.582 16.437 21.584 15.436 21.584 14.001V10.001C21.584 8.565 21.582 7.564 21.481 6.808C21.382 6.074 21.201 5.686 20.925 5.409C20.716 5.2 20.443 5.046 20.005 4.94C20.084 5.752 20.084 6.747 20.084 7.945V16.055C20.084 17.253 20.084 18.248 20.006 19.06ZM8.14198 2.853C7.40798 2.952 7.01998 3.133 6.74298 3.409C6.46598 3.686 6.28598 4.074 6.18698 4.809C6.08598 5.562 6.08398 6.564 6.08398 8V16C6.08398 17.435 6.08598 18.436 6.18698 19.192C6.28598 19.926 6.46698 20.314 6.74298 20.591C7.01998 20.868 7.40798 21.048 8.14298 21.147C8.89698 21.248 9.89898 21.25 11.334 21.25H13.334C14.769 21.25 15.771 21.248 16.526 21.147C17.26 21.048 17.648 20.867 17.925 20.591C18.202 20.314 18.382 19.926 18.481 19.191C18.582 18.436 18.584 17.435 18.584 16V8C18.584 6.565 18.582 5.563 18.481 4.808C18.382 4.074 18.201 3.686 17.925 3.409C17.648 3.132 17.26 2.952 16.525 2.853C15.771 2.752 14.769 2.75 13.334 2.75H11.334C9.89898 2.75 8.89698 2.752 8.14198 2.853ZM8.58398 9C8.58398 8.80109 8.663 8.61032 8.80365 8.46967C8.94431 8.32902 9.13507 8.25 9.33398 8.25H15.334C15.5329 8.25 15.7237 8.32902 15.8643 8.46967C16.005 8.61032 16.084 8.80109 16.084 9C16.084 9.19891 16.005 9.38968 15.8643 9.53033C15.7237 9.67098 15.5329 9.75 15.334 9.75H9.33398C9.13507 9.75 8.94431 9.67098 8.80365 9.53033C8.663 9.38968 8.58398 9.19891 8.58398 9ZM8.58398 13C8.58398 12.8011 8.663 12.6103 8.80365 12.4697C8.94431 12.329 9.13507 12.25 9.33398 12.25H15.334C15.5329 12.25 15.7237 12.329 15.8643 12.4697C16.005 12.6103 16.084 12.8011 16.084 13C16.084 13.1989 16.005 13.3897 15.8643 13.5303C15.7237 13.671 15.5329 13.75 15.334 13.75H9.33398C9.13507 13.75 8.94431 13.671 8.80365 13.5303C8.663 13.3897 8.58398 13.1989 8.58398 13ZM8.58398 17C8.58398 16.8011 8.663 16.6103 8.80365 16.4697C8.94431 16.329 9.13507 16.25 9.33398 16.25H12.334C12.5329 16.25 12.7237 16.329 12.8643 16.4697C13.005 16.6103 13.084 16.8011 13.084 17C13.084 17.1989 13.005 17.3897 12.8643 17.5303C12.7237 17.671 12.5329 17.75 12.334 17.75H9.33398C9.13507 17.75 8.94431 17.671 8.80365 17.5303C8.663 17.3897 8.58398 17.1989 8.58398 17Z" fill="#8F9BB3"/>
</svg>
