<svg width="25" height="24" viewBox="0 0 25 24" fill="none" xmlns="http://www.w3.org/2000/svg">
<path d="M13.8341 20C13.8341 20 14.8341 20 15.8341 22C15.8341 22 19.0111 17 21.8341 16M7.33408 16H11.3341M7.33408 11H15.3341M6.83408 3.5C5.27808 3.547 4.35108 3.72 3.70908 4.362C2.83008 5.242 2.83008 6.657 2.83008 9.488V15.994C2.83008 18.826 2.83008 20.241 3.70908 21.121C4.58708 22 6.00208 22 8.83008 22H11.3301M15.8261 3.5C17.3821 3.547 18.3101 3.72 18.9511 4.362C19.8311 5.242 19.8311 6.657 19.8311 9.488V13.5" stroke="#8F9BB3" stroke-width="1.5" stroke-linecap="round" stroke-linejoin="round"/>
<path d="M6.83008 3.75C6.83008 2.784 7.61408 2 8.58008 2H14.0801C14.5442 2 14.9893 2.18437 15.3175 2.51256C15.6457 2.84075 15.8301 3.28587 15.8301 3.75C15.8301 4.21413 15.6457 4.65925 15.3175 4.98744C14.9893 5.31563 14.5442 5.5 14.0801 5.5H8.58008C8.11595 5.5 7.67083 5.31563 7.34264 4.98744C7.01445 4.65925 6.83008 4.21413 6.83008 3.75Z" stroke="#8F9BB3" stroke-width="1.5" stroke-linecap="round" stroke-linejoin="round"/>
</svg>
