<svg width="25" height="24" viewBox="0 0 25 24" fill="none" xmlns="http://www.w3.org/2000/svg">
<path d="M16.334 21V19C16.334 17.9391 15.9126 16.9217 15.1624 16.1716C14.4123 15.4214 13.3949 15 12.334 15H6.33398C5.27312 15 4.2557 15.4214 3.50556 16.1716C2.75541 16.9217 2.33398 17.9391 2.33398 19V21" stroke="#8F9BB3" stroke-width="2" stroke-linecap="round" stroke-linejoin="round"/>
<path d="M9.33398 11C11.5431 11 13.334 9.20914 13.334 7C13.334 4.79086 11.5431 3 9.33398 3C7.12485 3 5.33398 4.79086 5.33398 7C5.33398 9.20914 7.12485 11 9.33398 11Z" stroke="#8F9BB3" stroke-width="2" stroke-linecap="round" stroke-linejoin="round"/>
<path d="M22.334 21V19C22.3333 18.1137 22.0383 17.2528 21.4953 16.5523C20.9524 15.8519 20.1921 15.3516 19.334 15.13M16.334 3.13C17.1944 3.35031 17.957 3.85071 18.5016 4.55232C19.0462 5.25392 19.3418 6.11683 19.3418 7.005C19.3418 7.89318 19.0462 8.75608 18.5016 9.45769C17.957 10.1593 17.1944 10.6597 16.334 10.88" stroke="#8F9BB3" stroke-width="2" stroke-linecap="round" stroke-linejoin="round"/>
</svg>
