<svg width="77" height="96" viewBox="0 0 77 96" fill="none" xmlns="http://www.w3.org/2000/svg">
<path d="M44.2 60.53C42.85 60.91 41.81 61.99 41.46 63.35L40.99 65.23L47.69 59.54L44.2 60.53ZM45.93 66.95C44.84 66.06 43.36 65.82 42.05 66.31L40.22 67L48.72 69.24L45.93 66.95ZM49.32 57.71C48.37 58.74 48.03 60.2 48.45 61.54L49.02 63.39L51.78 55.05L49.32 57.71ZM52 64.64C50.82 63.87 49.33 63.79 48.07 64.42L46.34 65.29L55.03 66.62L52 64.64ZM53.65 54.63C53.05 55.9 53.18 57.4 53.99 58.55L55.1 60.14L55.18 51.35L53.65 54.63ZM57.72 47.59L56.91 51.11C56.59 52.48 57.03 53.92 58.06 54.87L59.47 56.2L57.72 47.59ZM54.34 22.57L55.27 26.07C55.63 27.43 56.69 28.49 58.03 28.86L59.91 29.36L54.34 22.57ZM57.38 61.41C56.08 60.86 54.59 61.03 53.47 61.88L51.91 63.04L60.7 62.84L57.38 61.41ZM55.11 29.25L56.57 32.55C57.14 33.84 58.35 34.72 59.75 34.87L61.68 35.08L55.11 29.25ZM58.46 41.02L58.35 44.64C58.31 46.04 59.02 47.36 60.22 48.1L61.87 49.12L58.46 41.02ZM62.5 24.16L61.01 27.46C60.41 28.74 60.57 30.23 61.39 31.37L62.51 32.95V24.16H62.5ZM57.5 35.2L58.37 38.71C58.7 40.08 59.74 41.16 61.09 41.55L62.95 42.09L57.5 35.2ZM61.72 56.73C60.34 56.55 58.96 57.12 58.1 58.24L56.91 59.78L65.32 57.19L61.72 56.73ZM63.71 33.73C62.91 34.89 62.78 36.38 63.39 37.65L64.22 39.4L65.77 30.75L63.71 33.73ZM64.22 39.4L65.77 30.75L63.71 33.73C62.91 34.89 62.78 36.38 63.39 37.65L64.22 39.4ZM58.1 58.24L56.91 59.78L65.32 57.19L61.72 56.73C60.34 56.55 58.96 57.12 58.1 58.24ZM57.5 35.2L58.37 38.71C58.7 40.08 59.74 41.16 61.09 41.55L62.95 42.09L57.5 35.2ZM62.51 32.95V24.16L61.01 27.46C60.41 28.74 60.57 30.23 61.39 31.37L62.51 32.95ZM61.87 49.12L58.46 41.02L58.35 44.64C58.31 46.04 59.02 47.36 60.22 48.1L61.87 49.12ZM59.75 34.87L61.68 35.08L55.11 29.25L56.57 32.55C57.14 33.84 58.35 34.72 59.75 34.87ZM53.47 61.88L51.91 63.04L60.7 62.84L57.38 61.41C56.08 60.86 54.59 61.03 53.47 61.88ZM58.03 28.86L59.91 29.36L54.34 22.57L55.27 26.07C55.63 27.43 56.69 28.49 58.03 28.86ZM59.47 56.2L57.72 47.59L56.91 51.11C56.59 52.48 57.03 53.92 58.06 54.87L59.47 56.2ZM55.1 60.14L55.18 51.35L53.65 54.63C53.05 55.9 53.18 57.4 53.99 58.55L55.1 60.14ZM48.07 64.42L46.34 65.29L55.03 66.62L52 64.64C50.82 63.87 49.33 63.79 48.07 64.42ZM49.02 63.39L51.78 55.05L49.32 57.71C48.37 58.74 48.03 60.2 48.45 61.54L49.02 63.39ZM42.05 66.31L40.22 67L48.72 69.24L45.93 66.95C44.84 66.06 43.36 65.82 42.05 66.31ZM44.2 60.53C42.85 60.91 41.81 61.99 41.46 63.35L40.99 65.23L47.69 59.54L44.2 60.53ZM56.75 6.6C46.85 4.37 38.02 0 38.02 0C38.02 0 28.01 4.95 16.94 7.09C5.87 9.23 0 9.17 0 9.17V51.86C0 81.72 38.02 95.9 38.02 95.9C38.02 95.9 76.03 82.79 76.03 51V9.17C76.03 9.17 66.66 8.84 56.75 6.6ZM38.02 86.36V67.22C38.02 67.22 38.09 67.23 38.12 67.23C38.82 67.23 39.38 66.67 39.38 65.97C39.38 65.27 38.82 64.7 38.12 64.7C38.09 64.7 38.05 64.7 38.02 64.7V9.77C38.02 9.77 45.84 13.13 53.83 14.97C61.82 16.81 67.28 17.31 67.28 17.31C67.28 17.31 67.26 25.92 67.32 38.76L65.12 40.39C64 41.22 63.4 42.6 63.56 43.99L63.78 45.92L67.32 39.51L68.03 38.23L67.76 41.84C67.72 42.36 67.58 42.85 67.35 43.3C67.35 44.18 67.36 45.07 67.36 45.98L65.64 46.55C64.31 46.99 63.31 48.11 63.02 49.48L62.63 51.38L67.37 47L69.08 45.42L67.69 48.76C67.61 48.96 67.51 49.14 67.39 49.32C67.39 49.67 67.39 50.03 67.39 50.39C67.39 50.81 67.39 51.23 67.37 51.64L65.08 51.77C63.67 51.85 62.42 52.67 61.77 53.92L60.9 55.65L67.35 52.27L68.69 51.57L67.27 53.4C65.25 76.54 38.01 86.35 38.01 86.35L38.02 86.36ZM27.51 69.24L30.32 66.95C31.4 66.06 32.88 65.82 34.2 66.31L36.01 67L27.51 69.24ZM24.25 64.64C25.41 63.87 26.91 63.79 28.16 64.42L29.91 65.29L21.22 66.62L24.25 64.64ZM24.46 55.05L26.91 57.71C27.88 58.74 28.21 60.2 27.8 61.54L27.22 63.39L24.46 55.05ZM28.56 59.54L32.03 60.53C33.4 60.91 34.44 61.99 34.78 63.35L35.26 65.23L28.56 59.54ZM10.91 57.19L14.51 56.73C15.91 56.55 17.28 57.12 18.14 58.24L19.32 59.78L10.91 57.19ZM11.16 51.78C12.57 51.86 13.82 52.68 14.46 53.93L15.33 55.66L7.54999 51.58L11.16 51.78ZM8.20999 38.24L11.12 40.4C12.25 41.23 12.85 42.61 12.69 44L12.47 45.93L8.20999 38.24ZM12.02 39.4L10.47 30.75L12.53 33.73C13.33 34.89 13.46 36.38 12.85 37.65L12.02 39.4ZM13.74 24.16L15.24 27.46C15.82 28.74 15.68 30.23 14.86 31.37L13.72 32.95L13.74 24.16ZM17.78 41.02L17.9 44.64C17.94 46.04 17.22 47.36 16.03 48.1L14.38 49.12L17.78 41.02ZM18.52 47.59L19.34 51.11C19.65 52.48 19.22 53.92 18.19 54.87L16.77 56.2L18.52 47.59ZM16.5 34.87L14.57 35.08L21.14 29.25L19.68 32.55C19.11 33.84 17.9 34.72 16.5 34.87ZM18.75 35.2L17.88 38.71C17.55 40.08 16.51 41.16 15.16 41.55L13.3 42.09L18.75 35.2ZM21.07 51.35L22.6 54.63C23.19 55.9 23.07 57.4 22.26 58.55L21.15 60.14L21.07 51.35ZM20.97 26.07C20.62 27.43 19.56 28.49 18.2 28.86L16.33 29.36L21.91 22.57L20.97 26.07ZM10.6 46.56C11.94 47 12.94 48.12 13.22 49.49L13.62 51.39L7.16 45.43L10.6 46.56ZM18.87 61.41C20.16 60.86 21.65 61.03 22.78 61.88L24.33 63.04L15.55 62.84L18.87 61.41ZM64.22 39.4L65.77 30.75L63.71 33.73C62.91 34.89 62.78 36.38 63.39 37.65L64.22 39.4ZM58.1 58.24L56.91 59.78L65.32 57.19L61.72 56.73C60.34 56.55 58.96 57.12 58.1 58.24ZM58.37 38.71C58.7 40.08 59.74 41.16 61.09 41.55L62.95 42.09L57.5 35.2L58.37 38.71ZM62.51 32.95V24.16L61.01 27.46C60.41 28.74 60.57 30.23 61.39 31.37L62.51 32.95ZM58.35 44.64C58.31 46.04 59.02 47.36 60.22 48.1L61.87 49.12L58.46 41.02L58.35 44.64ZM59.75 34.87L61.68 35.08L55.11 29.25L56.57 32.55C57.14 33.84 58.35 34.72 59.75 34.87ZM53.47 61.88L51.91 63.04L60.7 62.84L57.38 61.41C56.08 60.86 54.59 61.03 53.47 61.88ZM58.03 28.86L59.91 29.36L54.34 22.57L55.27 26.07C55.63 27.43 56.69 28.49 58.03 28.86ZM59.47 56.2L57.72 47.59L56.91 51.11C56.59 52.48 57.03 53.92 58.06 54.87L59.47 56.2ZM55.1 60.14L55.18 51.35L53.65 54.63C53.05 55.9 53.18 57.4 53.99 58.55L55.1 60.14ZM48.07 64.42L46.34 65.29L55.03 66.62L52 64.64C50.82 63.87 49.33 63.79 48.07 64.42ZM49.02 63.39L51.78 55.05L49.32 57.71C48.37 58.74 48.03 60.2 48.45 61.54L49.02 63.39ZM42.05 66.31L40.22 67L48.72 69.24L45.93 66.95C44.84 66.06 43.36 65.82 42.05 66.31ZM44.2 60.53C42.85 60.91 41.81 61.99 41.46 63.35L40.99 65.23L47.69 59.54L44.2 60.53Z" fill="#9A1305"/>
<path d="M44.2 60.5298C42.85 60.9098 41.8099 61.9898 41.4599 63.3498L40.9899 65.2298L47.6899 59.5398L44.2 60.5298ZM45.9299 66.9498C44.8399 66.0598 43.3599 65.8198 42.0499 66.3098L40.2199 66.9998L48.7199 69.2398L45.9299 66.9498ZM49.3199 57.7098C48.3699 58.7398 48.03 60.1998 48.45 61.5398L49.02 63.3898L51.78 55.0498L49.3199 57.7098ZM51.9999 64.6398C50.8199 63.8698 49.3299 63.7898 48.0699 64.4198L46.3399 65.2898L55.03 66.6198L51.9999 64.6398ZM53.65 54.6298C53.05 55.8998 53.1799 57.3998 53.9899 58.5498L55.0999 60.1398L55.1799 51.3498L53.65 54.6298ZM57.7199 47.5898L56.9099 51.1098C56.5899 52.4798 57.0299 53.9198 58.0599 54.8698L59.4699 56.1998L57.7199 47.5898ZM54.34 22.5698L55.27 26.0698C55.63 27.4298 56.69 28.4898 58.03 28.8598L59.9099 29.3598L54.34 22.5698ZM57.3799 61.4098C56.0799 60.8598 54.5899 61.0298 53.4699 61.8798L51.9099 63.0398L60.7 62.8398L57.3799 61.4098ZM55.1099 29.2498L56.5699 32.5498C57.1399 33.8398 58.3499 34.7198 59.7499 34.8698L61.6799 35.0798L55.1099 29.2498ZM58.46 41.0198L58.3499 44.6398C58.3099 46.0398 59.0199 47.3598 60.2199 48.0998L61.8699 49.1198L58.46 41.0198ZM62.4999 24.1598L61.0099 27.4598C60.41 28.7398 60.57 30.2298 61.39 31.3698L62.5099 32.9498V24.1598H62.4999ZM57.4999 35.1998L58.3699 38.7098C58.6999 40.0798 59.74 41.1598 61.09 41.5498L62.95 42.0898L57.4999 35.1998ZM61.7199 56.7298C60.3399 56.5498 58.9599 57.1198 58.0999 58.2398L56.9099 59.7798L65.3199 57.1898L61.7199 56.7298ZM63.71 33.7298C62.91 34.8898 62.78 36.3798 63.39 37.6498L64.2199 39.3998L65.77 30.7498L63.71 33.7298ZM64.2199 39.3998L65.77 30.7498L63.71 33.7298C62.91 34.8898 62.78 36.3798 63.39 37.6498L64.2199 39.3998ZM58.0999 58.2398L56.9099 59.7798L65.3199 57.1898L61.7199 56.7298C60.3399 56.5498 58.9599 57.1198 58.0999 58.2398ZM57.4999 35.1998L58.3699 38.7098C58.6999 40.0798 59.74 41.1598 61.09 41.5498L62.95 42.0898L57.4999 35.1998ZM62.5099 32.9498V24.1598L61.0099 27.4598C60.41 28.7398 60.57 30.2298 61.39 31.3698L62.5099 32.9498ZM61.8699 49.1198L58.46 41.0198L58.3499 44.6398C58.3099 46.0398 59.0199 47.3598 60.2199 48.0998L61.8699 49.1198ZM59.7499 34.8698L61.6799 35.0798L55.1099 29.2498L56.5699 32.5498C57.1399 33.8398 58.3499 34.7198 59.7499 34.8698ZM53.4699 61.8798L51.9099 63.0398L60.7 62.8398L57.3799 61.4098C56.0799 60.8598 54.5899 61.0298 53.4699 61.8798ZM58.03 28.8598L59.9099 29.3598L54.34 22.5698L55.27 26.0698C55.63 27.4298 56.69 28.4898 58.03 28.8598ZM59.4699 56.1998L57.7199 47.5898L56.9099 51.1098C56.5899 52.4798 57.0299 53.9198 58.0599 54.8698L59.4699 56.1998ZM55.0999 60.1398L55.1799 51.3498L53.65 54.6298C53.05 55.8998 53.1799 57.3998 53.9899 58.5498L55.0999 60.1398ZM48.0699 64.4198L46.3399 65.2898L55.03 66.6198L51.9999 64.6398C50.8199 63.8698 49.3299 63.7898 48.0699 64.4198ZM49.02 63.3898L51.78 55.0498L49.3199 57.7098C48.3699 58.7398 48.03 60.1998 48.45 61.5398L49.02 63.3898ZM42.0499 66.3098L40.2199 66.9998L48.7199 69.2398L45.9299 66.9498C44.8399 66.0598 43.3599 65.8198 42.0499 66.3098ZM44.2 60.5298C42.85 60.9098 41.8099 61.9898 41.4599 63.3498L40.9899 65.2298L47.6899 59.5398L44.2 60.5298ZM70.8699 13.4798C70.8699 13.4798 62.72 13.1898 54.14 11.2598C45.55 9.31979 37.8999 5.52979 37.8999 5.52979C37.8999 5.52979 29.2199 9.82978 19.6199 11.6798C10.0199 13.5298 4.92993 13.4798 4.92993 13.4798V51.4998C4.92993 77.3998 37.8999 90.6898 37.8999 90.6898C37.8999 90.6898 71.3699 78.3198 71.3699 50.7598C71.3699 23.1998 70.8699 13.4798 70.8699 13.4798ZM32.0299 60.5298C33.3999 60.9098 34.4399 61.9898 34.7799 63.3498L35.2599 65.2298L28.5599 59.5398L32.0299 60.5298ZM26.9099 57.7098C27.8799 58.7398 28.2099 60.1998 27.7999 61.5398L27.2199 63.3898L24.4599 55.0498L26.9099 57.7098ZM22.2599 58.5498L21.1499 60.1398L21.0699 51.3498L22.5999 54.6298C23.1899 55.8998 23.0699 57.3998 22.2599 58.5498ZM21.14 29.2498L19.6799 32.5498C19.1099 33.8398 17.8999 34.7198 16.4999 34.8698L14.5699 35.0798L21.14 29.2498ZM18.7499 35.1998L17.8799 38.7098C17.5499 40.0798 16.5099 41.1598 15.1599 41.5498L13.2999 42.0898L18.7499 35.1998ZM17.7799 41.0198L17.8999 44.6398C17.9399 46.0398 17.2199 47.3598 16.0299 48.0998L14.3799 49.1198L17.7799 41.0198ZM18.5199 47.5898L19.3399 51.1098C19.6499 52.4798 19.2199 53.9198 18.1899 54.8698L16.7699 56.1998L18.5199 47.5898ZM21.9099 22.5698L20.9699 26.0698C20.6199 27.4298 19.56 28.4898 18.2 28.8598L16.3299 29.3598L21.9099 22.5698ZM15.2399 27.4598C15.8199 28.7398 15.6799 30.2298 14.8599 31.3698L13.7199 32.9498L13.7399 24.1598L15.2399 27.4598ZM12.5299 33.7298C13.3299 34.8898 13.4599 36.3798 12.8499 37.6498L12.0199 39.3998L10.4699 30.7498L12.5299 33.7298ZM11.1199 40.3998C12.2499 41.2298 12.8499 42.6098 12.6899 43.9998L12.4699 45.9298L8.20993 38.2398L11.1199 40.3998ZM10.5999 46.5598C11.9399 46.9998 12.9399 48.1198 13.2199 49.4898L13.6199 51.3898L7.15994 45.4298L10.5999 46.5598ZM11.1599 51.7798C12.5699 51.8598 13.8199 52.6798 14.4599 53.9298L15.3299 55.6598L7.54993 51.5798L11.1599 51.7798ZM14.5099 56.7298C15.9099 56.5498 17.28 57.1198 18.14 58.2398L19.3199 59.7798L10.9099 57.1898L14.5099 56.7298ZM18.8699 61.4098C20.1599 60.8598 21.6499 61.0298 22.7799 61.8798L24.3299 63.0398L15.5499 62.8398L18.8699 61.4098ZM24.2499 64.6398C25.4099 63.8698 26.9099 63.7898 28.1599 64.4198L29.9099 65.2898L21.2199 66.6198L24.2499 64.6398ZM27.5099 69.2398L30.3199 66.9498C31.3999 66.0598 32.88 65.8198 34.2 66.3098L36.0099 66.9998L27.5099 69.2398ZM67.4 50.3998C67.4 50.8198 67.3999 51.2398 67.3799 51.6498L65.09 51.7798C63.68 51.8598 62.43 52.6798 61.78 53.9298L60.9099 55.6598L67.3599 52.2798L68.7 51.5798L67.28 53.4098C65.26 76.5498 38.0199 86.3598 38.0199 86.3598V67.2198C38.0199 67.2198 38.0899 67.2298 38.1199 67.2298C38.8199 67.2298 39.3799 66.6698 39.3799 65.9698C39.3799 65.2698 38.8199 64.6998 38.1199 64.6998C38.0899 64.6998 38.0499 64.6998 38.0199 64.6998V9.76978C38.0199 9.76978 45.84 13.1298 53.83 14.9698C61.82 16.8098 67.28 17.3098 67.28 17.3098C67.28 17.3098 67.2599 25.9198 67.3199 38.7598L65.1199 40.3898C63.9999 41.2198 63.3999 42.5998 63.5599 43.9898L63.78 45.9198L67.3199 39.5098L68.03 38.2298L67.7599 41.8398C67.7199 42.3598 67.5799 42.8498 67.3499 43.2998C67.3499 44.1798 67.3599 45.0698 67.3599 45.9798L65.64 46.5498C64.31 46.9898 63.31 48.1098 63.02 49.4798L62.6299 51.3798L67.3699 46.9998L69.08 45.4198L67.6899 48.7598C67.6099 48.9598 67.51 49.1398 67.39 49.3198C67.39 49.6698 67.39 50.0298 67.39 50.3898L67.4 50.3998ZM64.2199 39.3998L65.77 30.7498L63.71 33.7298C62.91 34.8898 62.78 36.3798 63.39 37.6498L64.2199 39.3998ZM58.0999 58.2398L56.9099 59.7798L65.3199 57.1898L61.7199 56.7298C60.3399 56.5498 58.9599 57.1198 58.0999 58.2398ZM57.4999 35.1998L58.3699 38.7098C58.6999 40.0798 59.74 41.1598 61.09 41.5498L62.95 42.0898L57.4999 35.1998ZM62.5099 32.9498V24.1598L61.0099 27.4598C60.41 28.7398 60.57 30.2298 61.39 31.3698L62.5099 32.9498ZM58.3499 44.6398C58.3099 46.0398 59.0199 47.3598 60.2199 48.0998L61.8699 49.1198L58.46 41.0198L58.3499 44.6398ZM61.6799 35.0798L55.1099 29.2498L56.5699 32.5498C57.1399 33.8398 58.3499 34.7198 59.7499 34.8698L61.6799 35.0798ZM53.4699 61.8798L51.9099 63.0398L60.7 62.8398L57.3799 61.4098C56.0799 60.8598 54.5899 61.0298 53.4699 61.8798ZM58.03 28.8598L59.9099 29.3598L54.34 22.5698L55.27 26.0698C55.63 27.4298 56.69 28.4898 58.03 28.8598ZM58.0599 54.8698L59.4699 56.1998L57.7199 47.5898L56.9099 51.1098C56.5899 52.4798 57.0299 53.9198 58.0599 54.8698ZM55.0999 60.1398L55.1799 51.3498L53.65 54.6298C53.05 55.8998 53.1799 57.3998 53.9899 58.5498L55.0999 60.1398ZM48.0699 64.4198L46.3399 65.2898L55.03 66.6198L51.9999 64.6398C50.8199 63.8698 49.3299 63.7898 48.0699 64.4198ZM49.02 63.3898L51.78 55.0498L49.3199 57.7098C48.3699 58.7398 48.03 60.1998 48.45 61.5398L49.02 63.3898ZM42.0499 66.3098L40.2199 66.9998L48.7199 69.2398L45.9299 66.9498C44.8399 66.0598 43.3599 65.8198 42.0499 66.3098ZM44.2 60.5298C42.85 60.9098 41.8099 61.9898 41.4599 63.3498L40.9899 65.2298L47.6899 59.5398L44.2 60.5298Z" fill="#D32509"/>
<path d="M38.12 64.6998C38.12 64.6998 38.05 64.6998 38.02 64.6998V67.2098C38.02 67.2098 38.09 67.2198 38.12 67.2198C38.82 67.2198 39.38 66.6598 39.38 65.9598C39.38 65.2598 38.82 64.6898 38.12 64.6898V64.6998ZM44.2 60.5298C42.85 60.9098 41.81 61.9898 41.46 63.3498L40.99 65.2298L47.69 59.5398L44.2 60.5298ZM45.93 66.9498C44.84 66.0598 43.36 65.8198 42.05 66.3098L40.22 66.9998L48.72 69.2398L45.93 66.9498ZM49.32 57.7098C48.37 58.7398 48.03 60.1998 48.45 61.5398L49.0201 63.3898L51.7801 55.0498L49.32 57.7098ZM52 64.6398C50.82 63.8698 49.33 63.7898 48.07 64.4198L46.34 65.2898L55.0301 66.6198L52 64.6398ZM53.6501 54.6298C53.0501 55.8998 53.18 57.3998 53.99 58.5498L55.1 60.1398L55.18 51.3498L53.6501 54.6298ZM57.72 47.5898L56.91 51.1098C56.59 52.4798 57.03 53.9198 58.06 54.8698L59.47 56.1998L57.72 47.5898ZM54.3401 22.5698L55.2701 26.0698C55.6301 27.4298 56.6901 28.4898 58.0301 28.8598L59.91 29.3598L54.3401 22.5698ZM57.38 61.4098C56.08 60.8598 54.59 61.0298 53.47 61.8798L51.91 63.0398L60.7 62.8398L57.38 61.4098ZM55.11 29.2498L56.57 32.5498C57.14 33.8398 58.35 34.7198 59.75 34.8698L61.68 35.0798L55.11 29.2498ZM58.4601 41.0198L58.35 44.6398C58.31 46.0398 59.02 47.3598 60.22 48.0998L61.87 49.1198L58.4601 41.0198ZM62.5 24.1598L61.01 27.4598C60.41 28.7398 60.57 30.2298 61.39 31.3698L62.51 32.9498V24.1598H62.5ZM57.5 35.1998L58.37 38.7098C58.7 40.0798 59.7401 41.1598 61.0901 41.5498L62.95 42.0898L57.5 35.1998ZM61.72 56.7298C60.34 56.5498 58.96 57.1198 58.1 58.2398L56.91 59.7798L65.32 57.1898L61.72 56.7298ZM63.7101 33.7298C62.9101 34.8898 62.78 36.3798 63.39 37.6498L64.22 39.3998L65.7701 30.7498L63.7101 33.7298ZM65.12 40.3998C64 41.2298 63.4 42.6098 63.56 43.9998L63.7801 45.9298L67.32 39.5198V38.7698L65.12 40.3998ZM67.36 45.9898L65.64 46.5598C64.31 46.9998 63.3101 48.1198 63.0201 49.4898L62.63 51.3898L67.37 47.0098C67.37 46.6698 67.37 46.3298 67.36 45.9898ZM65.0901 51.7798C63.6801 51.8598 62.4301 52.6798 61.7801 53.9298L60.91 55.6598L67.36 52.2798C67.37 52.0698 67.38 51.8598 67.38 51.6498L65.0901 51.7798Z" fill="#8E1306"/>
<path d="M65.0901 51.7798L67.38 51.6498C67.4 51.2398 67.4001 50.8198 67.4001 50.3998C67.4001 50.0398 67.4001 49.6798 67.4001 49.3298C66.7801 50.3198 65.75 50.9998 64.56 51.1498L62.64 51.3898L63.0301 49.4898C63.3201 48.1198 64.3201 46.9998 65.6501 46.5598L67.37 45.9898C67.37 45.0798 67.36 44.1898 67.36 43.3098C66.97 44.0798 66.34 44.7098 65.54 45.0898L63.79 45.9298L63.57 43.9998C63.41 42.6098 64.01 41.2298 65.13 40.3998L67.33 38.7698C67.27 25.9298 67.29 17.3198 67.29 17.3198C67.29 17.3198 61.8301 16.8198 53.8401 14.9798C45.8501 13.1398 38.03 9.77979 38.03 9.77979V64.7098C38.03 64.7098 38.1 64.7098 38.13 64.7098C38.83 64.7098 39.39 65.2798 39.39 65.9798C39.39 66.6798 38.83 67.2398 38.13 67.2398C38.1 67.2398 38.06 67.2398 38.03 67.2298V86.3698C38.03 86.3698 65.27 76.5598 67.29 53.4198L66.48 54.4498C65.63 55.5598 64.23 56.1298 62.85 55.9398L60.92 55.6698L61.79 53.9398C62.44 52.6898 63.69 51.8698 65.1 51.7898L65.0901 51.7798ZM61.0901 41.5498C59.7401 41.1598 58.7 40.0798 58.37 38.7098L57.5 35.1998L60.72 36.8398C61.97 37.4898 62.78 38.7498 62.86 40.1498L62.95 42.0898L61.0901 41.5498ZM57.72 47.5898L59.86 50.5098C60.68 51.6498 60.84 53.1398 60.2701 54.4198L59.47 56.1998L58.06 54.8698C57.03 53.9198 56.59 52.4798 56.91 51.1098L57.72 47.5898ZM66.66 34.2598C67.02 35.6198 66.62 37.0598 65.61 38.0498L64.22 39.3998L63.39 37.6498C62.78 36.3798 62.9101 34.8898 63.7101 33.7298L65.7701 30.7498L66.66 34.2598ZM61.01 27.4598L62.5 24.1598L64.01 27.4498C64.6 28.7298 64.46 30.2198 63.64 31.3698L62.51 32.9498L61.39 31.3698C60.57 30.2298 60.41 28.7398 61.01 27.4598ZM61.24 33.1898L61.68 35.0798L59.75 34.8698C58.35 34.7198 57.14 33.8398 56.57 32.5498L55.11 29.2498L58.57 30.2998C59.91 30.7198 60.93 31.8198 61.24 33.1898ZM57.5901 24.1598C58.8501 24.7798 59.6901 26.0198 59.7801 27.4198L59.91 29.3598L58.0301 28.8598C56.6901 28.4898 55.6301 27.4298 55.2701 26.0698L54.3401 22.5698L57.5901 24.1598ZM53.6501 54.6298L55.18 51.3498L56.6501 54.6598C57.2201 55.9398 57.07 57.4298 56.24 58.5698L55.1 60.1398L53.99 58.5498C53.18 57.3998 53.0501 55.8998 53.6501 54.6298ZM49.32 57.7098L51.7801 55.0498L52.18 58.6498C52.33 60.0498 51.7201 61.4198 50.5901 62.2498L49.0201 63.3898L48.45 61.5398C48.03 60.1998 48.37 58.7398 49.32 57.7098ZM41.46 63.3498C41.81 61.9898 42.85 60.9098 44.2 60.5298L47.69 59.5398L46.15 62.8198C45.55 64.0898 44.32 64.9498 42.91 65.0698L40.99 65.2298L41.46 63.3498ZM45.16 69.8498C43.78 70.0898 42.38 69.5798 41.47 68.4998L40.22 66.9998L42.05 66.3098C43.36 65.8198 44.84 66.0598 45.93 66.9498L48.72 69.2398L45.16 69.8498ZM51.55 67.6098C50.2 67.9998 48.74 67.6298 47.72 66.6498L46.34 65.2898L48.07 64.4198C49.33 63.7898 50.82 63.8698 52 64.6398L55.0301 66.6198L51.55 67.6098ZM57.45 64.4198C56.18 65.0298 54.6901 64.9198 53.5301 64.1298L51.91 63.0398L53.47 61.8798C54.59 61.0298 56.08 60.8598 57.38 61.4098L60.7 62.8398L57.45 64.4198ZM61.72 56.7298L65.32 57.1898L62.62 59.5998C61.57 60.5298 60.1 60.8398 58.7701 60.3898L56.91 59.7798L58.1 58.2398C58.96 57.1198 60.34 56.5498 61.72 56.7298ZM60.22 48.0998C59.02 47.3598 58.31 46.0398 58.35 44.6398L58.4601 41.0198L61.12 43.4598C62.15 44.4198 62.6001 45.8498 62.2801 47.2198L61.87 49.1198L60.22 48.0998Z" fill="#9A1305"/>
<path d="M65.06 52L67.35 51.87C67.37 51.46 67.37 51.04 67.37 50.62C67.37 50.26 67.37 49.9 67.37 49.55C66.75 50.54 65.72 51.22 64.53 51.37L62.61 51.61L63 49.71C63.29 48.34 64.29 47.22 65.62 46.78L67.34 46.21C67.34 45.3 67.33 44.41 67.33 43.53C66.94 44.3 66.31 44.93 65.51 45.31L63.76 46.15L63.54 44.22C63.38 42.83 63.98 41.45 65.1 40.62L67.3 38.99C67.24 26.15 67.26 17.54 67.26 17.54C67.26 17.54 61.8 17.04 53.81 15.2C45.82 13.36 38 10 38 10V64.93C38 64.93 38.07 64.93 38.1 64.93C38.8 64.93 39.36 65.5 39.36 66.2C39.36 66.9 38.8 67.46 38.1 67.46C38.07 67.46 38.03 67.46 38 67.45V86.59C38 86.59 65.24 76.78 67.26 53.64L66.45 54.67C65.6 55.78 64.2 56.35 62.82 56.16L60.89 55.89L61.76 54.16C62.41 52.91 63.66 52.09 65.07 52.01L65.06 52ZM61.06 41.77C59.71 41.38 58.67 40.3 58.34 38.93L57.47 35.42L60.69 37.06C61.94 37.71 62.75 38.97 62.83 40.37L62.92 42.31L61.06 41.77ZM57.69 47.81L59.83 50.73C60.65 51.87 60.81 53.36 60.24 54.64L59.44 56.42L58.03 55.09C57 54.14 56.56 52.7 56.88 51.33L57.69 47.81ZM66.63 34.48C66.99 35.84 66.59 37.28 65.58 38.27L64.19 39.62L63.36 37.87C62.75 36.6 62.88 35.11 63.68 33.95L65.74 30.97L66.63 34.48ZM60.98 27.68L62.47 24.38L63.98 27.67C64.57 28.95 64.43 30.44 63.61 31.59L62.48 33.17L61.36 31.59C60.54 30.45 60.38 28.96 60.98 27.68ZM61.21 33.41L61.65 35.3L59.72 35.09C58.32 34.94 57.11 34.06 56.54 32.77L55.08 29.47L58.54 30.52C59.88 30.94 60.9 32.04 61.21 33.41ZM57.56 24.38C58.82 25 59.66 26.24 59.75 27.64L59.88 29.58L58 29.08C56.66 28.71 55.6 27.65 55.24 26.29L54.31 22.79L57.56 24.38ZM53.62 54.85L55.15 51.57L56.62 54.88C57.19 56.16 57.04 57.65 56.21 58.79L55.07 60.36L53.96 58.77C53.15 57.62 53.02 56.12 53.62 54.85ZM49.29 57.93L51.75 55.27L52.15 58.87C52.3 60.27 51.69 61.64 50.56 62.47L48.99 63.61L48.42 61.76C48 60.42 48.34 58.96 49.29 57.93ZM41.43 63.57C41.78 62.21 42.82 61.13 44.17 60.75L47.66 59.76L46.12 63.04C45.52 64.31 44.29 65.17 42.88 65.29L40.96 65.45L41.43 63.57ZM45.13 70.07C43.75 70.31 42.35 69.8 41.44 68.72L40.19 67.22L42.02 66.53C43.33 66.04 44.81 66.28 45.9 67.17L48.69 69.46L45.13 70.07ZM51.52 67.83C50.17 68.22 48.71 67.85 47.69 66.87L46.31 65.51L48.04 64.64C49.3 64.01 50.79 64.09 51.97 64.86L55 66.84L51.52 67.83ZM57.42 64.64C56.15 65.25 54.66 65.14 53.5 64.35L51.88 63.26L53.44 62.1C54.56 61.25 56.05 61.08 57.35 61.63L60.67 63.06L57.42 64.64ZM61.69 56.95L65.29 57.41L62.59 59.82C61.54 60.75 60.07 61.06 58.74 60.61L56.88 60L58.07 58.46C58.93 57.34 60.31 56.77 61.69 56.95ZM60.19 48.32C58.99 47.58 58.28 46.26 58.32 44.86L58.43 41.24L61.09 43.68C62.12 44.64 62.57 46.07 62.25 47.44L61.84 49.34L60.19 48.32Z" fill="#9A1305"/>
<path fill-rule="evenodd" clip-rule="evenodd" d="M35.2498 65.23L28.5498 59.54L32.0298 60.53C33.3898 60.91 34.4298 61.99 34.7798 63.35L35.2498 65.23Z" fill="#FFF3D0"/>
<path fill-rule="evenodd" clip-rule="evenodd" d="M35.2498 65.23L33.3098 65.07C31.9098 64.95 30.6798 64.09 30.0898 62.82L28.5498 59.54L35.2498 65.23Z" fill="#FFF3D0"/>
<path fill-rule="evenodd" clip-rule="evenodd" d="M27.7897 61.5398L27.2197 63.3898L24.4497 55.0498L26.9097 57.7098C27.8697 58.7398 28.1997 60.1998 27.7897 61.5398Z" fill="#FFF3D0"/>
<path fill-rule="evenodd" clip-rule="evenodd" d="M27.2198 63.3898L25.6498 62.2498C24.5098 61.4198 23.9098 60.0498 24.0598 58.6498L24.4498 55.0498L27.2198 63.3898Z" fill="#FFF3D0"/>
<path fill-rule="evenodd" clip-rule="evenodd" d="M36 66.9999L27.5 69.2398L30.31 66.9498C31.39 66.0598 32.87 65.8198 34.19 66.3098L36 66.9999Z" fill="#FFF3D0"/>
<path fill-rule="evenodd" clip-rule="evenodd" d="M36 67L34.76 68.5C33.86 69.58 32.45 70.09 31.07 69.85L27.5 69.24L36 67Z" fill="#FFF3D0"/>
<path fill-rule="evenodd" clip-rule="evenodd" d="M29.9 65.29L21.21 66.6201L24.24 64.64C25.41 63.87 26.91 63.79 28.16 64.42L29.9 65.29Z" fill="#FFF3D0"/>
<path fill-rule="evenodd" clip-rule="evenodd" d="M29.9 65.29L28.5 66.65C27.5 67.63 26.04 68 24.69 67.61L21.21 66.62L29.9 65.29Z" fill="#FFF3D0"/>
<path fill-rule="evenodd" clip-rule="evenodd" d="M24.32 63.0397L15.54 62.8397L18.86 61.4097C20.15 60.8597 21.64 61.0297 22.77 61.8797L24.32 63.0397Z" fill="#FFF3D0"/>
<path fill-rule="evenodd" clip-rule="evenodd" d="M24.32 63.0398L22.71 64.1298C21.55 64.9198 20.05 65.0298 18.79 64.4198L15.54 62.8398L24.32 63.0398Z" fill="#FFF3D0"/>
<path fill-rule="evenodd" clip-rule="evenodd" d="M22.2498 58.5496L21.1398 60.1396L21.0598 51.3496L22.5898 54.6296C23.1798 55.8996 23.0598 57.3996 22.2498 58.5496Z" fill="#FFF3D0"/>
<path fill-rule="evenodd" clip-rule="evenodd" d="M21.1399 60.1396L19.9999 58.5696C19.1699 57.4296 19.0099 55.9396 19.5799 54.6596L21.0599 51.3496L21.1399 60.1396Z" fill="#FFF3D0"/>
<path fill-rule="evenodd" clip-rule="evenodd" d="M17.8899 44.64C17.9299 46.04 17.2199 47.36 16.0199 48.1L14.3699 49.12L17.7799 41.02L17.8899 44.64Z" fill="#FFF3D0"/>
<path fill-rule="evenodd" clip-rule="evenodd" d="M17.7798 41.02L14.3698 49.12L13.9398 47.22C13.6398 45.85 14.0798 44.42 15.1198 43.46L17.7798 41.02Z" fill="#FFF3D0"/>
<path fill-rule="evenodd" clip-rule="evenodd" d="M19.3099 59.78L10.9099 57.19L14.4999 56.73C15.8999 56.55 17.2799 57.12 18.1299 58.24L19.3099 59.78Z" fill="#FFF3D0"/>
<path fill-rule="evenodd" clip-rule="evenodd" d="M19.3099 59.7799L17.4699 60.3899C16.1299 60.8399 14.6699 60.5299 13.6199 59.5999L10.9099 57.1899L19.3099 59.7799Z" fill="#FFF3D0"/>
<path fill-rule="evenodd" clip-rule="evenodd" d="M18.1797 54.8698L16.7598 56.1998L18.5098 47.5898L19.3297 51.1098C19.6397 52.4798 19.2097 53.9198 18.1797 54.8698Z" fill="#FFF3D0"/>
<path fill-rule="evenodd" clip-rule="evenodd" d="M18.5099 47.5898L16.7599 56.1998L15.9699 54.4198C15.3999 53.1398 15.5499 51.6498 16.3799 50.5098L18.5099 47.5898Z" fill="#FFF3D0"/>
<path fill-rule="evenodd" clip-rule="evenodd" d="M18.74 35.1997L17.87 38.7097C17.54 40.0797 16.5 41.1597 15.15 41.5497L13.29 42.0897L18.74 35.1997Z" fill="#FFF3D0"/>
<path fill-rule="evenodd" clip-rule="evenodd" d="M18.74 35.1997L13.29 42.0897L13.38 40.1497C13.45 38.7497 14.26 37.4897 15.52 36.8397L18.74 35.1997Z" fill="#FFF3D0"/>
<path fill-rule="evenodd" clip-rule="evenodd" d="M21.1298 29.25L19.6698 32.55C19.0998 33.84 17.8898 34.72 16.4898 34.87L14.5598 35.08L21.1298 29.25Z" fill="#FFF3D0"/>
<path fill-rule="evenodd" clip-rule="evenodd" d="M21.1298 29.25L14.5598 35.08L14.9898 33.19C15.3098 31.82 16.3298 30.72 17.6698 30.3L21.1298 29.25Z" fill="#FFF3D0"/>
<path fill-rule="evenodd" clip-rule="evenodd" d="M21.8998 22.5698L20.9698 26.0698C20.6098 27.4298 19.5498 28.4898 18.1898 28.8598L16.3198 29.3598L21.8998 22.5698Z" fill="#FFF3D0"/>
<path fill-rule="evenodd" clip-rule="evenodd" d="M21.8998 22.5698L16.3198 29.3598L16.4498 27.4198C16.5498 26.0198 17.3798 24.7798 18.6498 24.1598L21.8998 22.5698Z" fill="#FFF3D0"/>
<path fill-rule="evenodd" clip-rule="evenodd" d="M15.32 55.6596L7.54004 51.5796L11.15 51.7796C12.56 51.8596 13.81 52.6796 14.45 53.9296L15.32 55.6596Z" fill="#FFF3D0"/>
<path fill-rule="evenodd" clip-rule="evenodd" d="M15.32 55.6596L13.4 55.9296C12 56.1196 10.62 55.5496 9.75003 54.4396L7.54004 51.5796L15.32 55.6596Z" fill="#FFF3D0"/>
<path fill-rule="evenodd" clip-rule="evenodd" d="M13.6099 51.3897L7.1499 45.4297L10.5899 46.5597C11.9299 46.9997 12.9299 48.1197 13.2199 49.4897L13.6099 51.3897Z" fill="#FFF3D0"/>
<path fill-rule="evenodd" clip-rule="evenodd" d="M13.6099 51.3897L11.6799 51.1497C10.2899 50.9697 9.0999 50.0597 8.5499 48.7697L7.1499 45.4297L13.6099 51.3897Z" fill="#FFF3D0"/>
<path fill-rule="evenodd" clip-rule="evenodd" d="M12.6799 43.9997L12.4599 45.9297L8.19995 38.2397L11.1099 40.3997C12.2399 41.2297 12.8399 42.6097 12.6799 43.9997Z" fill="#FFF3D0"/>
<path fill-rule="evenodd" clip-rule="evenodd" d="M12.4599 45.9297L10.7099 45.0897C9.43993 44.4897 8.58995 43.2497 8.47995 41.8497L8.19995 38.2397L12.4599 45.9297Z" fill="#FFF3D0"/>
<path fill-rule="evenodd" clip-rule="evenodd" d="M12.8397 37.65L12.0097 39.4L10.4697 30.75L12.5197 33.73C13.3197 34.89 13.4497 36.38 12.8397 37.65Z" fill="#FFF3D0"/>
<path fill-rule="evenodd" clip-rule="evenodd" d="M12.0098 39.4L10.6198 38.05C9.61981 37.06 9.20982 35.62 9.55982 34.26L10.4698 30.75L12.0098 39.4Z" fill="#FFF3D0"/>
<path fill-rule="evenodd" clip-rule="evenodd" d="M14.85 31.3697L13.72 32.9497V24.1597L15.23 27.4597C15.81 28.7397 15.67 30.2297 14.85 31.3697Z" fill="#FFF3D0"/>
<path fill-rule="evenodd" clip-rule="evenodd" d="M13.7299 24.1597V32.9497L12.5999 31.3697C11.7799 30.2197 11.6399 28.7297 12.2299 27.4497L13.7299 24.1597Z" fill="#FFF3D0"/>
<path fill-rule="evenodd" clip-rule="evenodd" d="M47.69 59.54L40.99 65.23L41.46 63.35C41.81 61.99 42.85 60.91 44.2 60.53L47.69 59.54Z" fill="#FFF3D0"/>
<path fill-rule="evenodd" clip-rule="evenodd" d="M47.69 59.54L46.15 62.82C45.55 64.09 44.32 64.95 42.91 65.07L40.99 65.23L47.69 59.54Z" fill="#FFF3D0"/>
<path fill-rule="evenodd" clip-rule="evenodd" d="M51.7801 55.0498L49.0201 63.3898L48.4501 61.5398C48.0301 60.1998 48.3701 58.7398 49.3201 57.7098L51.7801 55.0498Z" fill="#FFF3D0"/>
<path fill-rule="evenodd" clip-rule="evenodd" d="M50.59 62.2498L49.02 63.3898L51.78 55.0498L52.18 58.6498C52.33 60.0498 51.72 61.4198 50.59 62.2498Z" fill="#FFF3D0"/>
<path fill-rule="evenodd" clip-rule="evenodd" d="M48.7199 69.2398L40.22 66.9999L42.05 66.3098C43.36 65.8198 44.84 66.0598 45.93 66.9498L48.7199 69.2398Z" fill="#FFF3D0"/>
<path fill-rule="evenodd" clip-rule="evenodd" d="M48.7199 69.24L45.16 69.85C43.78 70.09 42.38 69.58 41.47 68.5L40.22 67L48.7199 69.24Z" fill="#FFF3D0"/>
<path fill-rule="evenodd" clip-rule="evenodd" d="M55.0299 66.6201L46.3398 65.29L48.0699 64.42C49.3299 63.79 50.8198 63.87 51.9998 64.64L55.0299 66.6201Z" fill="#FFF3D0"/>
<path fill-rule="evenodd" clip-rule="evenodd" d="M55.0299 66.62L51.5498 67.61C50.1998 68 48.7398 67.63 47.7198 66.65L46.3398 65.29L55.0299 66.62Z" fill="#FFF3D0"/>
<path fill-rule="evenodd" clip-rule="evenodd" d="M60.7 62.8397L51.9099 63.0397L53.4699 61.8797C54.5899 61.0297 56.0799 60.8597 57.3799 61.4097L60.7 62.8397Z" fill="#FFF3D0"/>
<path fill-rule="evenodd" clip-rule="evenodd" d="M60.7 62.8398L57.45 64.4198C56.18 65.0298 54.69 64.9198 53.53 64.1298L51.9099 63.0398L60.7 62.8398Z" fill="#FFF3D0"/>
<path fill-rule="evenodd" clip-rule="evenodd" d="M55.18 51.3496L55.1 60.1396L53.99 58.5496C53.18 57.3996 53.05 55.8996 53.65 54.6296L55.18 51.3496Z" fill="#FFF3D0"/>
<path fill-rule="evenodd" clip-rule="evenodd" d="M56.2401 58.5696L55.1001 60.1396L55.1801 51.3496L56.6501 54.6596C57.2201 55.9396 57.0701 57.4296 56.2401 58.5696Z" fill="#FFF3D0"/>
<path fill-rule="evenodd" clip-rule="evenodd" d="M61.87 49.12L60.22 48.1C59.02 47.36 58.31 46.04 58.35 44.64L58.46 41.02L61.87 49.12Z" fill="#FFF3D0"/>
<path fill-rule="evenodd" clip-rule="evenodd" d="M62.28 47.22L61.8699 49.12L58.46 41.02L61.1199 43.46C62.1499 44.42 62.6 45.85 62.28 47.22Z" fill="#FFF3D0"/>
<path fill-rule="evenodd" clip-rule="evenodd" d="M65.3199 57.19L56.9099 59.78L58.0999 58.24C58.9599 57.12 60.3399 56.55 61.7199 56.73L65.3199 57.19Z" fill="#FFF3D0"/>
<path fill-rule="evenodd" clip-rule="evenodd" d="M65.3199 57.1899L62.6199 59.5999C61.5699 60.5299 60.1 60.8399 58.77 60.3899L56.9099 59.7799L65.3199 57.1899Z" fill="#FFF3D0"/>
<path fill-rule="evenodd" clip-rule="evenodd" d="M59.4698 56.1998L58.0598 54.8698C57.0298 53.9198 56.5898 52.4798 56.9098 51.1098L57.7198 47.5898L59.4698 56.1998Z" fill="#FFF3D0"/>
<path fill-rule="evenodd" clip-rule="evenodd" d="M60.2698 54.4198L59.4697 56.1998L57.7197 47.5898L59.8597 50.5098C60.6797 51.6498 60.8398 53.1398 60.2698 54.4198Z" fill="#FFF3D0"/>
<path fill-rule="evenodd" clip-rule="evenodd" d="M62.95 42.0897L61.09 41.5497C59.74 41.1597 58.7 40.0797 58.37 38.7097L57.5 35.1997L62.95 42.0897Z" fill="#FFF3D0"/>
<path fill-rule="evenodd" clip-rule="evenodd" d="M62.95 42.0897L57.5 35.1997L60.72 36.8397C61.97 37.4897 62.78 38.7497 62.86 40.1497L62.95 42.0897Z" fill="#FFF3D0"/>
<path fill-rule="evenodd" clip-rule="evenodd" d="M61.6799 35.08L59.7499 34.87C58.3499 34.72 57.1399 33.84 56.5699 32.55L55.1099 29.25L61.6799 35.08Z" fill="#FFF3D0"/>
<path fill-rule="evenodd" clip-rule="evenodd" d="M61.6799 35.08L55.1099 29.25L58.5699 30.3C59.9099 30.72 60.9299 31.82 61.2399 33.19L61.6799 35.08Z" fill="#FFF3D0"/>
<path fill-rule="evenodd" clip-rule="evenodd" d="M59.91 29.3598L58.0301 28.8598C56.6901 28.4898 55.6301 27.4298 55.2701 26.0698L54.3401 22.5698L59.91 29.3598Z" fill="#FFF3D0"/>
<path fill-rule="evenodd" clip-rule="evenodd" d="M59.91 29.3598L54.3401 22.5698L57.5901 24.1598C58.8501 24.7798 59.6901 26.0198 59.7801 27.4198L59.91 29.3598Z" fill="#FFF3D0"/>
<path fill-rule="evenodd" clip-rule="evenodd" d="M68.7 51.5796L67.3599 52.2796L60.9099 55.6596L61.78 53.9296C62.43 52.6796 63.68 51.8596 65.09 51.7796L67.3799 51.6496L68.7 51.5796Z" fill="#FFF3D0"/>
<path fill-rule="evenodd" clip-rule="evenodd" d="M68.7 51.5796L67.28 53.4096L66.4699 54.4396C65.6199 55.5496 64.22 56.1196 62.84 55.9296L60.9099 55.6596L67.3599 52.2796L68.7 51.5796Z" fill="#FFF3D0"/>
<path fill-rule="evenodd" clip-rule="evenodd" d="M69.0799 45.4297L67.3699 47.0097L62.6299 51.3897L63.0199 49.4897C63.3099 48.1197 64.3099 46.9997 65.6399 46.5597L67.3599 45.9897L69.0799 45.4297Z" fill="#FFF3D0"/>
<path fill-rule="evenodd" clip-rule="evenodd" d="M69.0799 45.4297L67.6899 48.7697C67.6099 48.9697 67.5099 49.1497 67.3899 49.3297C66.7699 50.3197 65.7399 50.9997 64.5499 51.1497L62.6299 51.3897L67.3699 47.0097L69.0799 45.4297Z" fill="#FFF3D0"/>
<path fill-rule="evenodd" clip-rule="evenodd" d="M68.03 38.2397L67.32 39.5197L63.78 45.9297L63.56 43.9997C63.4 42.6097 64 41.2297 65.12 40.3997L67.32 38.7697L68.03 38.2397Z" fill="#FFF3D0"/>
<path fill-rule="evenodd" clip-rule="evenodd" d="M68.03 38.2397L67.76 41.8497C67.72 42.3697 67.58 42.8597 67.35 43.3097C66.96 44.0797 66.33 44.7097 65.53 45.0897L63.78 45.9297L67.32 39.5197L68.03 38.2397Z" fill="#FFF3D0"/>
<path fill-rule="evenodd" clip-rule="evenodd" d="M65.77 30.75L64.2199 39.4L63.39 37.65C62.78 36.38 62.91 34.89 63.71 33.73L65.77 30.75Z" fill="#FFF3D0"/>
<path fill-rule="evenodd" clip-rule="evenodd" d="M65.61 38.05L64.22 39.4L65.77 30.75L66.66 34.26C67.02 35.62 66.62 37.06 65.61 38.05Z" fill="#FFF3D0"/>
<path fill-rule="evenodd" clip-rule="evenodd" d="M62.5099 32.9497L61.3899 31.3697C60.5699 30.2297 60.4099 28.7397 61.0099 27.4597L62.4998 24.1597V32.9497H62.5099Z" fill="#FFF3D0"/>
<path fill-rule="evenodd" clip-rule="evenodd" d="M63.6398 31.3697L62.5098 32.9497V24.1597L64.0098 27.4497C64.5998 28.7297 64.4598 30.2197 63.6398 31.3697Z" fill="#FFF3D0"/>
<path fill-rule="evenodd" clip-rule="evenodd" d="M39.3799 65.97C39.3799 66.67 38.8198 67.23 38.1198 67.23C38.0898 67.23 38.0498 67.23 38.0198 67.22C37.3698 67.18 36.8499 66.64 36.8499 65.97C36.8499 65.3 37.3698 64.76 38.0198 64.71C38.0498 64.71 38.0898 64.71 38.1198 64.71C38.8198 64.71 39.3799 65.28 39.3799 65.98V65.97Z" fill="#FFF3D0"/>
<path d="M51.9601 53.8802H46.9901C46.5201 53.8802 46.1001 53.7802 45.7601 53.5802C45.4301 53.3902 45.1501 53.1202 44.9201 52.7602V52.7302L39.7201 44.5002L39.0101 43.3802C38.8201 43.1002 38.4501 42.4602 38.1601 42.0902L37.8201 41.5302L34.5601 36.3802H37.8601C38.5501 36.3802 39.1801 36.3802 39.7401 36.3202C40.0101 36.3002 40.2401 36.2602 40.4601 36.2002C40.4601 36.2002 40.4901 36.2002 40.5001 36.2002C40.8501 36.1002 41.1901 35.9502 41.4701 35.7702C41.8101 35.5702 42.0901 35.3202 42.3101 35.0302C42.7501 34.4302 42.8601 33.2902 42.8601 32.9002C42.8601 32.5202 42.6901 31.2502 42.0901 30.5702C41.6601 30.1002 40.8801 29.7102 39.7301 29.5202C39.2601 29.4502 38.7201 29.4002 38.1101 29.4002H37.4301L34.1101 24.1602H37.8201C38.4901 24.1802 39.1301 24.2202 39.7201 24.2702C40.9701 24.3602 42.0701 24.5602 43.0401 24.8502C44.4801 25.2602 45.6601 25.8502 46.5901 26.6002C47.5101 27.3602 48.2001 28.2602 48.6101 29.2902C48.6401 29.3402 48.6501 29.3702 48.6601 29.4002C49.0601 30.4302 49.3201 31.5402 49.2601 32.7502C49.2301 33.4802 49.0901 34.4402 48.9501 35.0202C48.8901 35.3102 48.6501 36.1302 48.5501 36.3802C48.3301 36.9502 48.0001 37.7002 47.7201 38.0902C47.1901 38.8202 46.6301 39.5302 45.8901 40.1702C45.5301 40.4802 45.0801 40.8302 44.7901 40.9902C44.4801 41.1602 44.1501 41.3202 43.7801 41.4702L43.8301 41.5302L47.3201 47.0502L51.9401 53.8602L51.9601 53.8802Z" fill="#FFF3D0"/>
<path d="M36.59 41.6404H34.32V53.8704H28.81L28.8 41.5404L28.79 36.4004H33.27L36.53 41.5404L36.59 41.6404Z" fill="#FFF3D0"/>
<path d="M26.0701 28.4899H31.4701C31.2001 28.0699 30.7401 27.8499 30.2501 27.8499H26.5101C25.9801 27.8499 25.4801 27.5599 25.2001 27.1099H30.6101C30.3501 26.6899 29.8901 26.4699 29.3901 26.4699H25.6401C25.1101 26.4699 24.6201 26.1699 24.3301 25.7199L29.7401 25.7299C29.4801 25.3099 29.0201 25.0599 28.5201 25.0599H24.7701C24.2401 25.0599 23.7501 24.7899 23.4601 24.3399L23.3501 24.1699H32.8501L36.1701 29.4099H27.5201C26.9901 29.4099 26.4901 29.1399 26.2101 28.6899L26.0901 28.4999L26.0701 28.4899Z" fill="#FFF3D0"/>
</svg>
