<svg width="306" height="387" viewBox="0 0 306 387" fill="none" xmlns="http://www.w3.org/2000/svg">
<path d="M0.00158691 38.8573C0.00158691 38.8573 16.0958 38.8573 24.1429 34.8338C32.1901 30.8102 40.2372 18.7396 40.2372 18.7396C40.2372 18.7396 70.4139 20.7513 98.5788 16.7278C126.744 12.7042 152.897 0.633545 152.897 0.633545C152.897 0.633545 183.074 14.716 201.18 16.7278C219.286 18.7396 265.556 18.7396 265.556 18.7396C265.556 18.7396 273.604 30.8102 283.662 34.8338C293.721 38.8573 305.792 34.8338 305.792 34.8338V209.859C305.792 209.859 305.792 264.177 265.556 310.448C225.321 356.718 154.909 386.895 154.909 386.895C154.909 386.895 80.4728 356.718 40.2372 310.448C0.00157924 264.177 0.00158691 209.859 0.00158691 209.859V38.8573Z" fill="#A21414"/>
<path d="M16.0892 54.9932C16.0892 54.9932 30.4893 54.9932 37.6893 51.3888C44.8894 47.7844 52.0894 36.971 52.0894 36.971C52.0894 36.971 79.0896 38.7733 104.29 35.1688C129.49 31.5644 152.89 20.7511 152.89 20.7511C152.89 20.7511 179.89 33.3666 196.09 35.1688C212.291 36.971 253.691 36.971 253.691 36.971C253.691 36.971 260.891 47.7844 269.891 51.3888C278.891 54.9932 289.691 51.3888 289.691 51.3888V208.182C289.691 208.182 289.691 256.842 253.691 298.293C217.691 339.744 154.69 366.777 154.69 366.777C154.69 366.777 88.0897 339.744 52.0894 298.293C16.0892 256.842 16.0892 208.182 16.0892 208.182V54.9932Z" fill="#E02239"/>
<path d="M156.92 36.8454C156.92 36.8454 169.79 45.8111 192.279 49.2903C214.767 52.7696 243.548 51.0682 243.548 51.0682C243.548 51.0682 247.084 59.9575 255.924 63.5132C264.764 67.0689 273.603 64.085 273.603 64.085V202.186C273.603 202.186 273.603 259.077 225.869 299.967C178.135 340.858 156.92 342.636 156.92 342.636V36.8454Z" fill="#A21414"/>
<path fill-rule="evenodd" clip-rule="evenodd" d="M157.85 255.727C157.85 258.544 155.597 260.797 152.78 260.797C152.659 260.797 152.498 260.797 152.378 260.757C149.762 260.596 147.67 258.423 147.67 255.727C147.67 253.031 149.762 250.859 152.378 250.658C152.498 250.658 152.659 250.658 152.78 250.658C155.597 250.658 157.85 252.951 157.85 255.767V255.727Z" fill="white"/>
<path fill-rule="evenodd" clip-rule="evenodd" d="M141.21 252.749L114.252 229.855L128.255 233.838C133.727 235.367 137.911 239.713 139.319 245.185L141.21 252.749Z" fill="white"/>
<path fill-rule="evenodd" clip-rule="evenodd" d="M141.21 252.749L133.405 252.106C127.772 251.623 122.823 248.162 120.449 243.052L114.252 229.855L141.21 252.749Z" fill="white"/>
<path fill-rule="evenodd" clip-rule="evenodd" d="M111.202 237.903L108.909 245.346L97.7637 211.79L107.662 222.492C111.524 226.637 112.852 232.511 111.202 237.903Z" fill="white"/>
<path fill-rule="evenodd" clip-rule="evenodd" d="M108.908 245.346L102.591 240.759C98.0042 237.42 95.59 231.908 96.1936 226.275L97.7628 211.79L108.908 245.346Z" fill="white"/>
<path fill-rule="evenodd" clip-rule="evenodd" d="M144.23 259.871L110.03 268.884L121.336 259.67C125.681 256.089 131.636 255.124 136.947 257.095L144.23 259.871Z" fill="white"/>
<path fill-rule="evenodd" clip-rule="evenodd" d="M144.23 259.871L139.241 265.907C135.62 270.252 129.946 272.304 124.394 271.338L110.03 268.884L144.23 259.871Z" fill="white"/>
<path fill-rule="evenodd" clip-rule="evenodd" d="M119.686 252.991L84.7216 258.342L96.913 250.376C101.621 247.277 107.656 246.956 112.685 249.49L119.686 252.991Z" fill="white"/>
<path fill-rule="evenodd" clip-rule="evenodd" d="M119.686 252.991L114.053 258.463C110.03 262.406 104.155 263.895 98.7237 262.325L84.7216 258.342L119.686 252.991Z" fill="white"/>
<path fill-rule="evenodd" clip-rule="evenodd" d="M97.229 243.938L61.902 243.133L75.2602 237.38C80.4506 235.167 86.4457 235.851 90.9923 239.271L97.229 243.938Z" fill="white"/>
<path fill-rule="evenodd" clip-rule="evenodd" d="M97.229 243.938L90.7509 248.323C86.0836 251.502 80.0483 251.945 74.9786 249.49L61.902 243.133L97.229 243.938Z" fill="white"/>
<path fill-rule="evenodd" clip-rule="evenodd" d="M88.9045 225.872L84.4384 232.27L84.1165 196.902L90.2725 210.1C92.6464 215.21 92.1636 221.245 88.9045 225.872Z" fill="white"/>
<path fill-rule="evenodd" clip-rule="evenodd" d="M84.4414 232.27L79.8544 225.953C76.5149 221.366 75.871 215.371 78.1645 210.22L84.1194 196.902L84.4414 232.27Z" fill="white"/>
<path fill-rule="evenodd" clip-rule="evenodd" d="M71.3625 169.905C71.5235 175.538 68.6666 180.849 63.8383 183.826L57.1995 187.93L70.9199 155.339L71.3625 169.905Z" fill="white"/>
<path fill-rule="evenodd" clip-rule="evenodd" d="M70.9214 155.339L57.201 187.93L55.4709 180.286C54.2638 174.773 56.0342 169.02 60.2187 165.157L70.9214 155.339Z" fill="white"/>
<path fill-rule="evenodd" clip-rule="evenodd" d="M77.0714 230.821L43.2734 220.4L57.718 218.549C63.351 217.825 68.9036 220.119 72.3236 224.625L77.0714 230.821Z" fill="white"/>
<path fill-rule="evenodd" clip-rule="evenodd" d="M77.0713 230.821L69.668 233.276C64.2764 235.086 58.4019 233.839 54.1772 230.097L43.2733 220.4L77.0713 230.821Z" fill="white"/>
<path fill-rule="evenodd" clip-rule="evenodd" d="M70.7581 207.29L64.8673 212.446L73.0742 178.06L75.8934 192.326C76.9539 197.878 75.0291 203.61 70.7581 207.29Z" fill="white"/>
<path fill-rule="evenodd" clip-rule="evenodd" d="M73.0859 178.061L64.879 212.446L61.9439 205.181C59.8257 199.956 60.6313 193.985 64.1239 189.513L73.0859 178.061Z" fill="white"/>
<path fill-rule="evenodd" clip-rule="evenodd" d="M74.7737 131.922L71.2733 146.045C69.9455 151.557 65.761 155.903 60.3291 157.472L52.8453 159.645L74.7737 131.922Z" fill="white"/>
<path fill-rule="evenodd" clip-rule="evenodd" d="M74.7737 131.922L52.8453 159.645L53.2074 151.839C53.4891 146.206 56.7481 141.136 61.8178 138.521L74.7737 131.922Z" fill="white"/>
<path fill-rule="evenodd" clip-rule="evenodd" d="M84.3885 107.982L78.5141 121.26C76.2206 126.451 71.352 129.991 65.719 130.595L57.9536 131.44L84.3885 107.982Z" fill="white"/>
<path fill-rule="evenodd" clip-rule="evenodd" d="M84.3885 107.982L57.9536 131.44L59.6837 123.835C60.9712 118.323 65.0753 113.897 70.4669 112.207L84.3885 107.982Z" fill="white"/>
<path fill-rule="evenodd" clip-rule="evenodd" d="M87.4935 81.1046L83.7516 95.1872C82.3031 100.659 78.0381 104.924 72.5661 106.413L65.042 108.425L87.4935 81.1046Z" fill="white"/>
<path fill-rule="evenodd" clip-rule="evenodd" d="M87.4935 81.1046L65.042 108.425L65.5651 100.619C65.9674 94.986 69.3069 89.9967 74.4169 87.5021L87.4935 81.1046Z" fill="white"/>
<path fill-rule="evenodd" clip-rule="evenodd" d="M61.0206 214.244L29.7172 197.828L44.2422 198.633C49.9154 198.955 54.945 202.254 57.5201 207.283L61.0206 214.244Z" fill="white"/>
<path fill-rule="evenodd" clip-rule="evenodd" d="M61.0206 214.244L53.2953 215.331C47.6622 216.095 42.1097 213.802 38.6092 209.335L29.7172 197.828L61.0206 214.244Z" fill="white"/>
<path fill-rule="evenodd" clip-rule="evenodd" d="M54.1361 197.064L28.1439 173.083L41.985 177.63C47.3766 179.4 51.4002 183.907 52.567 189.419L54.1361 197.064Z" fill="white"/>
<path fill-rule="evenodd" clip-rule="evenodd" d="M54.1361 197.064L46.3706 196.098C40.7779 195.374 35.9898 191.712 33.7768 186.522L28.1439 173.083L54.1361 197.064Z" fill="white"/>
<path fill-rule="evenodd" clip-rule="evenodd" d="M50.4033 167.33L49.5182 175.095L32.3778 144.154L44.0863 152.845C48.6329 156.185 51.0471 161.737 50.4033 167.33Z" fill="white"/>
<path fill-rule="evenodd" clip-rule="evenodd" d="M49.5182 175.095L42.4769 171.716C37.367 169.301 33.947 164.312 33.5044 158.679L32.3778 144.154L49.5182 175.095Z" fill="white"/>
<path fill-rule="evenodd" clip-rule="evenodd" d="M51.0474 141.78L47.7079 148.822L41.5115 114.018L49.7598 126.008C52.9787 130.675 53.5018 136.67 51.0474 141.78Z" fill="white"/>
<path fill-rule="evenodd" clip-rule="evenodd" d="M47.7057 148.822L42.1129 143.39C38.0893 139.406 36.4397 133.613 37.8479 128.14L41.5094 114.018L47.7057 148.822Z" fill="white"/>
<path fill-rule="evenodd" clip-rule="evenodd" d="M59.1303 116.512L54.5837 122.869V87.5021L60.6593 100.78C62.993 105.93 62.4297 111.925 59.1303 116.512Z" fill="white"/>
<path fill-rule="evenodd" clip-rule="evenodd" d="M54.6177 87.5021V122.869L50.0711 116.512C46.7717 111.885 46.2085 105.89 48.5824 100.74L54.6177 87.5021Z" fill="white"/>
<path fill-rule="evenodd" clip-rule="evenodd" d="M191.271 229.856L164.313 252.75L166.204 245.185C167.613 239.713 171.797 235.368 177.229 233.839L191.271 229.856Z" fill="white"/>
<path fill-rule="evenodd" clip-rule="evenodd" d="M191.271 229.856L185.075 243.053C182.661 248.163 177.712 251.623 172.038 252.106L164.313 252.75L191.271 229.856Z" fill="white"/>
<path fill-rule="evenodd" clip-rule="evenodd" d="M207.73 211.79L196.624 245.347L194.331 237.903C192.641 232.511 194.009 226.637 197.831 222.493L207.73 211.79Z" fill="white"/>
<path fill-rule="evenodd" clip-rule="evenodd" d="M202.942 240.76L196.625 245.346L207.73 211.79L209.339 226.275C209.942 231.908 207.488 237.42 202.942 240.76Z" fill="white"/>
<path fill-rule="evenodd" clip-rule="evenodd" d="M195.422 268.884L161.222 259.871L168.585 257.095C173.856 255.123 179.811 256.089 184.197 259.67L195.422 268.884Z" fill="white"/>
<path fill-rule="evenodd" clip-rule="evenodd" d="M195.421 268.884L181.097 271.339C175.545 272.304 169.912 270.252 166.25 265.907L161.221 259.871L195.421 268.884Z" fill="white"/>
<path fill-rule="evenodd" clip-rule="evenodd" d="M220.797 258.343L185.832 252.991L192.793 249.491C197.863 246.956 203.858 247.278 208.606 250.376L220.797 258.343Z" fill="white"/>
<path fill-rule="evenodd" clip-rule="evenodd" d="M220.797 258.343L206.794 262.326C201.363 263.895 195.488 262.406 191.384 258.463L185.832 252.991L220.797 258.343Z" fill="white"/>
<path fill-rule="evenodd" clip-rule="evenodd" d="M243.618 243.133L208.251 243.938L214.528 239.271C219.034 235.851 225.029 235.167 230.26 237.38L243.618 243.133Z" fill="white"/>
<path fill-rule="evenodd" clip-rule="evenodd" d="M243.617 243.134L230.54 249.491C225.43 251.945 219.435 251.503 214.768 248.324L208.25 243.939L243.617 243.134Z" fill="white"/>
<path fill-rule="evenodd" clip-rule="evenodd" d="M221.404 196.903L221.082 232.27L216.616 225.873C213.357 221.246 212.834 215.21 215.248 210.1L221.404 196.903Z" fill="white"/>
<path fill-rule="evenodd" clip-rule="evenodd" d="M225.673 225.953L221.086 232.27L221.408 196.903L227.323 210.221C229.617 215.371 229.013 221.366 225.673 225.953Z" fill="white"/>
<path fill-rule="evenodd" clip-rule="evenodd" d="M248.323 187.93L241.684 183.826C236.855 180.849 233.999 175.538 234.16 169.905L234.602 155.339L248.323 187.93Z" fill="white"/>
<path fill-rule="evenodd" clip-rule="evenodd" d="M249.972 180.286L248.322 187.93L234.602 155.339L245.304 165.157C249.449 169.02 251.259 174.773 249.972 180.286Z" fill="white"/>
<path fill-rule="evenodd" clip-rule="evenodd" d="M262.217 220.4L228.378 230.821L233.166 224.625C236.627 220.119 242.179 217.825 247.732 218.55L262.217 220.4Z" fill="white"/>
<path fill-rule="evenodd" clip-rule="evenodd" d="M262.217 220.401L251.353 230.097C247.128 233.839 241.214 235.087 235.862 233.276L228.378 230.822L262.217 220.401Z" fill="white"/>
<path fill-rule="evenodd" clip-rule="evenodd" d="M239.398 212.595L233.224 207.83C228.723 204.435 226.389 198.844 227.126 193.232L228.971 178.816L239.398 212.595Z" fill="white"/>
<path fill-rule="evenodd" clip-rule="evenodd" d="M241.89 205.151L239.394 212.596L228.967 178.817L238.695 189.659C242.431 193.897 243.664 199.8 241.89 205.151Z" fill="white"/>
<path fill-rule="evenodd" clip-rule="evenodd" d="M252.681 159.645L245.198 157.472C239.766 155.903 235.581 151.557 234.253 146.045L230.753 131.922L252.681 159.645Z" fill="white"/>
<path fill-rule="evenodd" clip-rule="evenodd" d="M252.681 159.645L230.753 131.922L243.709 138.521C248.738 141.136 251.997 146.206 252.319 151.839L252.681 159.645Z" fill="white"/>
<path fill-rule="evenodd" clip-rule="evenodd" d="M247.561 131.44L239.796 130.595C234.163 129.991 229.294 126.45 227.001 121.26L221.126 107.982L247.561 131.44Z" fill="white"/>
<path fill-rule="evenodd" clip-rule="evenodd" d="M247.561 131.44L221.126 107.982L235.048 112.207C240.44 113.897 244.544 118.323 245.791 123.835L247.561 131.44Z" fill="white"/>
<path fill-rule="evenodd" clip-rule="evenodd" d="M240.452 108.425L232.888 106.413C227.496 104.924 223.231 100.659 221.783 95.1872L218.041 81.1047L240.452 108.425Z" fill="white"/>
<path fill-rule="evenodd" clip-rule="evenodd" d="M240.452 108.425L218.041 81.1047L231.118 87.5022C236.187 89.9968 239.567 94.986 239.929 100.619L240.452 108.425Z" fill="white"/>
<path fill-rule="evenodd" clip-rule="evenodd" d="M275.804 197.828L270.413 200.645L244.461 214.244L247.961 207.284C250.577 202.254 255.606 198.955 261.279 198.633L270.493 198.11L275.804 197.828Z" fill="white"/>
<path fill-rule="evenodd" clip-rule="evenodd" d="M275.804 197.828L270.091 205.191L266.832 209.336C263.412 213.802 257.779 216.095 252.226 215.331L244.461 214.244L270.413 200.645L275.804 197.828Z" fill="white"/>
<path fill-rule="evenodd" clip-rule="evenodd" d="M277.337 173.083L270.456 179.441L251.384 197.064L252.954 189.419C254.121 183.907 258.144 179.4 263.495 177.63L270.416 175.336L277.337 173.083Z" fill="white"/>
<path fill-rule="evenodd" clip-rule="evenodd" d="M277.337 173.083L271.744 186.522C271.422 187.327 271.02 188.051 270.537 188.775C268.042 192.759 263.898 195.495 259.11 196.098L251.384 197.064L270.456 179.441L277.337 173.083Z" fill="white"/>
<path fill-rule="evenodd" clip-rule="evenodd" d="M273.113 144.154L270.256 149.304L256.013 175.095L255.127 167.33C254.483 161.737 256.898 156.185 261.404 152.845L270.256 146.287L273.113 144.154Z" fill="white"/>
<path fill-rule="evenodd" clip-rule="evenodd" d="M273.122 144.154L272.036 158.679C271.875 160.771 271.311 162.743 270.386 164.554C268.817 167.652 266.282 170.187 263.063 171.716L256.022 175.095L270.265 149.304L273.122 144.154Z" fill="white"/>
<path fill-rule="evenodd" clip-rule="evenodd" d="M264.028 114.018L257.791 148.821L254.452 141.78C251.997 136.67 252.52 130.675 255.739 126.008L264.028 114.018Z" fill="white"/>
<path fill-rule="evenodd" clip-rule="evenodd" d="M263.392 143.39L257.799 148.821L264.036 114.018L267.617 128.14C269.065 133.612 267.456 139.406 263.392 143.39Z" fill="white"/>
<path fill-rule="evenodd" clip-rule="evenodd" d="M250.9 122.869L246.394 116.512C243.094 111.925 242.45 105.93 244.865 100.78L250.86 87.5021V122.869H250.9Z" fill="white"/>
<path fill-rule="evenodd" clip-rule="evenodd" d="M255.439 116.512L250.892 122.869V87.5021L256.928 100.74C259.301 105.89 258.738 111.885 255.439 116.512Z" fill="white"/>
<path d="M211.68 200.685H191.682C189.791 200.685 188.101 200.283 186.733 199.478C185.406 198.714 184.279 197.627 183.354 196.179V196.058L162.431 162.944L159.574 158.438C158.81 157.311 157.321 154.736 156.154 153.247L154.786 150.994L141.669 130.273H154.947C157.723 130.273 160.258 130.273 162.511 130.031C163.598 129.951 164.523 129.79 165.408 129.549C165.408 129.549 165.529 129.549 165.569 129.549C166.978 129.146 168.346 128.543 169.472 127.818C170.84 127.014 171.967 126.008 172.852 124.841C174.622 122.427 175.065 117.84 175.065 116.271C175.065 114.742 174.381 109.632 171.967 106.896C170.237 105.005 167.098 103.436 162.471 102.671C160.58 102.389 158.407 102.188 155.953 102.188H153.217L139.859 81.1047H154.786C157.482 81.1852 160.057 81.3461 162.431 81.5473C167.46 81.9094 171.886 82.7141 175.789 83.881C181.583 85.5306 186.331 87.9045 190.073 90.9222C193.775 93.9801 196.551 97.6014 198.2 101.746C198.321 101.947 198.361 102.068 198.402 102.188C200.011 106.333 201.057 110.799 200.816 115.667C200.695 118.604 200.132 122.467 199.569 124.801C199.327 125.968 198.361 129.267 197.959 130.273C197.074 132.566 195.746 135.584 194.619 137.153C192.487 140.09 190.234 142.947 187.256 145.522C185.808 146.769 183.997 148.178 182.83 148.821C181.583 149.505 180.255 150.149 178.767 150.753L178.968 150.994L193.01 173.204L211.599 200.605L211.68 200.685Z" fill="white"/>
<path d="M149.843 151.436H140.71V200.645H118.54L118.5 151.034L118.459 130.353H136.485L149.602 151.034L149.843 151.436Z" fill="white"/>
<path d="M107.516 98.527H129.243C128.156 96.8371 126.306 95.952 124.334 95.952H109.286C107.153 95.952 105.142 94.7851 104.015 92.9745H125.782C124.736 91.2846 122.886 90.3994 120.874 90.3994H105.785C103.653 90.3994 101.681 89.1923 100.514 87.3817L122.282 87.422C121.236 85.7321 119.385 84.7262 117.373 84.7262H102.285C100.152 84.7262 98.1808 83.6398 97.0139 81.8292L96.5714 81.1452H134.795L148.154 102.229H113.35C111.217 102.229 109.205 101.142 108.079 99.3318L107.596 98.5673L107.516 98.527Z" fill="white"/>
</svg>
