<svg width="779" height="180" viewBox="0 0 779 180" fill="none" xmlns="http://www.w3.org/2000/svg">
<path d="M217.253 147.804C223.409 147.804 228.944 146.788 233.801 144.698C238.658 142.608 242.781 139.728 246.17 136.057C249.559 132.386 252.1 127.811 253.907 122.502C255.715 117.193 256.562 111.263 256.562 104.711V1.9203H288.472V104.711C288.472 114.934 286.834 124.366 283.559 133.007C280.283 141.648 275.539 149.16 269.383 155.429C263.226 161.698 255.715 166.611 246.961 170.17C238.206 173.671 228.266 175.479 217.309 175.479C206.353 175.479 196.412 173.728 187.602 170.17C178.848 166.668 171.336 161.754 165.236 155.429C159.08 149.16 154.392 141.648 151.117 133.007C147.841 124.366 146.203 114.877 146.203 104.711V1.9203H178.113V104.598C178.113 111.15 179.017 117.08 180.768 122.389C182.575 127.698 185.117 132.216 188.449 136C191.781 139.784 195.848 142.665 200.705 144.698C205.562 146.731 211.097 147.804 217.253 147.804Z" fill="black"/>
<path d="M412.951 33.1528C412.104 34.9037 411.088 36.1462 409.902 36.824C408.772 37.5582 407.36 37.897 405.779 37.897C404.197 37.897 402.39 37.2758 400.413 36.0333C398.436 34.7907 396.121 33.4352 393.41 31.9103C390.699 30.3854 387.593 29.0299 383.978 27.7874C380.363 26.5449 376.127 25.9236 371.214 25.9236C366.752 25.9236 362.911 26.4319 359.636 27.505C356.36 28.5781 353.592 30.0465 351.333 31.9668C349.074 33.8871 347.38 36.1462 346.307 38.8007C345.177 41.4552 344.669 44.3356 344.669 47.4984C344.669 51.5083 345.798 54.8971 348.058 57.608C350.317 60.319 353.31 62.5781 357.038 64.4984C360.765 66.4187 365.001 68.113 369.745 69.5815C374.49 71.0499 379.347 72.6878 384.317 74.3821C389.287 76.0765 394.088 78.0532 398.832 80.3124C403.576 82.5715 407.812 85.3954 411.539 88.8406C415.267 92.2858 418.26 96.5217 420.519 101.492C422.779 106.462 423.908 112.562 423.908 119.678C423.908 127.415 422.553 134.701 419.955 141.479C417.3 148.256 413.403 154.13 408.32 159.156C403.237 164.183 396.968 168.136 389.626 171.017C382.284 173.897 373.812 175.366 364.323 175.366C358.845 175.366 353.48 174.857 348.171 173.784C342.862 172.711 337.779 171.186 332.921 169.209C328.064 167.233 323.489 164.861 319.254 162.093C315.018 159.326 311.234 156.219 307.901 152.831L317.164 137.525C318.011 136.395 319.084 135.492 320.327 134.758C321.569 134.023 322.925 133.628 324.45 133.628C326.426 133.628 328.573 134.419 330.832 136.057C333.147 137.694 335.858 139.502 338.965 141.479C342.071 143.455 345.798 145.263 350.034 146.9C354.27 148.538 359.353 149.329 365.284 149.329C374.377 149.329 381.436 147.183 386.406 142.834C391.377 138.485 393.862 132.329 393.862 124.253C393.862 119.734 392.732 116.063 390.473 113.239C388.214 110.415 385.22 107.987 381.493 106.067C377.765 104.146 373.529 102.508 368.785 101.153C364.041 99.7974 359.184 98.329 354.327 96.7476C349.413 95.1662 344.612 93.2459 339.868 91.0433C335.124 88.8406 330.888 85.9602 327.161 82.4021C323.433 78.8439 320.44 74.3821 318.181 69.0731C315.921 63.7077 314.792 57.1562 314.792 49.3057C314.792 43.0366 316.034 36.9369 318.519 31.0067C321.004 25.0764 324.676 19.8239 329.42 15.1927C334.22 10.6179 340.094 6.94685 347.041 4.17941C353.988 1.41196 361.951 0 370.875 0C380.985 0 390.36 1.5814 398.888 4.74419C407.416 7.90698 414.702 12.3688 420.745 18.0166L412.895 33.0964L412.951 33.1528Z" fill="black"/>
<path d="M593.174 175.477H560.981V100.473H480.499V175.477H448.307V3.83878H480.499V77.6561H560.981V3.83878H593.174V175.477Z" fill="black"/>
<path d="M31.9103 105.566V172.662H0V1.02404H52.3555C64.0465 1.02404 74.0997 2.21009 82.4585 4.63866C90.8173 7.06723 97.6512 10.4559 103.017 14.8048C108.382 19.1536 112.279 24.3496 114.764 30.3928C117.249 36.436 118.492 43.1005 118.492 50.3862C118.492 56.147 117.645 61.6254 115.95 66.765C114.256 71.9045 111.771 76.5922 108.608 80.7716C105.445 84.951 101.435 88.6221 96.7476 91.7849C92.0599 94.9477 86.6944 97.4892 80.6512 99.4095C84.6612 101.725 88.1628 105.001 91.0997 109.237L134.08 172.606H105.332C102.565 172.606 100.193 172.041 98.2725 170.968C96.3522 169.838 94.7143 168.257 93.3588 166.224L57.2691 111.27C55.9137 109.237 54.4452 107.768 52.8073 106.865C51.1695 105.961 48.7974 105.566 45.6346 105.566H31.9668H31.9103ZM31.9103 82.6919H51.8472C57.8339 82.6919 63.0864 81.9577 67.5482 80.4327C72.01 78.9078 75.6812 76.8746 78.618 74.2201C81.4984 71.5656 83.6446 68.4028 85.113 64.7882C86.525 61.1736 87.2592 57.1636 87.2592 52.8148C87.2592 44.1171 84.3788 37.3962 78.6745 32.7649C72.9137 28.0772 64.1595 25.7616 52.3555 25.7616H31.9103V82.7484V82.6919Z" fill="black"/>
<path d="M778.545 179.27H748.781C745.901 179.27 743.472 178.705 741.439 177.575C739.406 176.446 737.768 174.808 736.356 172.662L736.243 172.492L700.887 116.409C699.814 114.771 697.555 110.874 695.804 108.728L693.715 105.396L674.173 74.502H693.997C700.04 74.502 705.519 74.502 709.642 73.3159C709.698 73.3159 709.754 73.3159 709.811 73.3159C711.957 72.6947 713.934 71.8475 715.685 70.7744C717.718 69.5319 719.469 68.0635 720.711 66.3126C723.309 62.698 724.044 55.8641 724.044 53.5485C724.044 51.2329 723.027 43.6648 719.412 39.5983C715.741 35.5319 707.834 32.595 695.578 32.595H691.455L671.462 1.02353H693.771C706.027 1.3624 716.419 2.60493 725.117 5.14646C733.758 7.63151 740.874 11.1332 746.409 15.6514C751.944 20.1697 756.01 25.5352 758.608 31.8043C758.721 32.0302 758.778 32.2561 758.891 32.482C761.319 38.5817 762.788 45.3026 762.505 52.5319C762.336 56.9372 761.489 62.698 760.698 66.1432C760.303 67.894 758.834 72.8076 758.269 74.389C756.97 77.7213 754.994 82.2395 753.356 84.5552C750.193 89.017 746.804 93.2528 742.343 97.0934C740.196 98.9572 737.542 100.99 735.791 102.007C734.04 103.024 731.951 104.04 729.748 104.887L729.974 105.226L750.984 138.379L778.658 179.213L778.545 179.27Z" fill="#E02239"/>
<path d="M686.373 105.904H672.705V179.269H639.665L639.609 105.282L639.553 74.4452H666.436L685.978 105.282L686.373 105.904Z" fill="#E02239"/>
<path d="M623.23 27.0041H655.592C654.011 24.5191 651.243 23.1636 648.25 23.1636H625.828C622.609 23.2201 619.672 21.4128 617.921 18.7018H650.34C648.758 16.1603 645.991 14.8613 643.054 14.8613H620.519C617.356 14.8613 614.363 13.054 612.669 10.343L645.087 10.3995C643.506 7.91441 640.738 6.38949 637.801 6.38949H615.323C612.104 6.38949 609.167 4.75162 607.473 2.04065L606.795 1.02404H663.782L683.718 32.4825H631.871C628.708 32.4825 625.715 30.8447 624.021 28.1337L623.287 26.9477L623.23 27.0041Z" fill="#E02239"/>
</svg>
